<!-- <svg id='Copy_24' width='24' height='24' viewBox='0 0 24 24' xmlns='http://www.w3.org/2000/svg' xmlns:xlink='http://www.w3.org/1999/xlink'><rect width='24' height='24' stroke='none' fill='#000000' opacity='0'/>


<g transform="matrix(0.53 0 0 0.53 12 12)" >
<path style="stroke: none; stroke-width: 1; stroke-dasharray: none; stroke-linecap: butt; stroke-dashoffset: 0; stroke-linejoin: miter; stroke-miterlimit: 4; fill: rgb(0,0,0); fill-rule: nonzero; opacity: 1;" transform=" translate(-24, -24)" d="M 18.5 5 C 15.467 5 13 7.467 13 10.5 L 13 32.5 C 13 35.533 15.467 38 18.5 38 L 34.5 38 C 37.533 38 40 35.533 40 32.5 L 40 10.5 C 40 7.467 37.533 5 34.5 5 L 18.5 5 z M 11 10 L 9.78125 10.8125 C 8.66825 11.5545 8 12.803625 8 14.140625 L 8 33.5 C 8 38.747 12.253 43 17.5 43 L 30.859375 43 C 32.197375 43 33.4465 42.33175 34.1875 41.21875 L 35 40 L 17.5 40 C 13.91 40 11 37.09 11 33.5 L 11 10 z" stroke-linecap="round" />
</g>
</svg> -->
<svg
    xmlns="http://www.w3.org/2000/svg"
    width="50"
    height="50"
    viewBox="0 0 24 24"
    fill="none"
    stroke="currentColor"
    stroke-width="2"
    stroke-linecap="round"
    stroke-linejoin="round"
    className="mr-2 size-4"
>
    <rect width="14" height="14" x="8" y="8" rx="2" ry="2"></rect>
    <path d="M4 16c-1.1 0-2-.9-2-2V4c0-1.1.9-2 2-2h10c1.1 0 2 .9 2 2"></path>
</svg>