<svg xmlns="http://www.w3.org/2000/svg" xmlns:xlink="http://www.w3.org/1999/xlink" viewBox="0,0,256,256" width="30px" height="30px"><g fill="#327eeb" fill-rule="nonzero" stroke="none" stroke-width="1" stroke-linecap="butt" stroke-linejoin="miter" stroke-miterlimit="10" stroke-dasharray="" stroke-dashoffset="0" font-family="none" font-weight="none" font-size="none" text-anchor="none" style="mix-blend-mode: normal"><path d="M0,256v-256h256v256z" id="bgRectangle"></path></g><g fill="#ffffff" fill-rule="nonzero" stroke="none" stroke-width="1" stroke-linecap="butt" stroke-linejoin="miter" stroke-miterlimit="10" stroke-dasharray="" stroke-dashoffset="0" font-family="none" font-weight="none" font-size="none" text-anchor="none" style="mix-blend-mode: normal"><g transform="scale(8.53333,8.53333)"><path d="M15,2.59375c-2.387,2.417 -2.402,6.33628 0,8.73828l3.66797,3.66797l-2.25391,2.25391c1.737,1.738 2.51756,4.09672 2.35156,6.38672l4.27148,-4.27148l3.67578,-3.67578c0.384,-0.383 0.383,-1.00372 0,-1.38672l-7.34375,-7.34375zM11.23438,6.35938l-4.27148,4.27148l-0.12305,0.125l-3.55078,3.54883c-0.383,0.384 -0.383,1.00467 0,1.38867l10.67773,10.67774l1.0332,1.03516c2.387,-2.417 2.402,-6.33628 0,-8.73828l-3.66797,-3.66797l2.25391,-2.25391c-1.737,-1.738 -2.51756,-4.09672 -2.35156,-6.38672z"></path></g></g></svg>